<svg width="42" height="21" viewBox="0 0 42 21" fill="none" xmlns="http://www.w3.org/2000/svg">
<path d="M1.45469 16.7111C1.26758 16.4223 1.01809 15.9609 0.863996 15.6192C-0.0348905 13.6185 -0.0752488 11.5473 0.68055 9.56073C1.5134 7.38038 3.10571 5.7143 5.16398 4.86189C7.75057 3.79461 10.6087 4.00243 13.0889 5.4149C14.6628 6.2814 15.7782 7.6199 16.6257 9.51494C16.7321 9.75798 16.8275 10.0151 16.9229 10.237L1.45469 16.7111ZM6.62054 8.07781C4.78241 8.83512 3.83583 10.4906 4.03395 12.4279L11.8121 9.21201C10.4729 7.70444 8.73384 7.20426 6.62054 8.07781V8.07781ZM12.7807 15.0732C12.777 15.0732 12.777 15.0768 12.777 15.0768L12.6156 14.9711C12.1496 15.6932 11.4268 16.2814 10.5133 16.6618C8.7742 17.3874 7.16354 17.2007 6.00416 16.225L5.89776 16.38C5.89776 16.38 5.89776 16.3765 5.89409 16.3765L3.92021 19.212C4.41185 19.5396 4.9365 19.8143 5.48684 20.0362C7.66619 20.9063 9.89689 20.864 12.0946 19.9482C13.6832 19.286 14.9307 18.2786 15.7819 17L12.7807 15.0732ZM22.3272 0.691406V16.4505L24.8808 17.4438L23.4316 20.6914L20.6138 19.5642C19.9828 19.3001 19.5498 18.8985 19.227 18.4441C18.9151 17.9827 18.684 17.3452 18.684 16.4927V0.691406H22.3272ZM28.9386 12.4385C28.9386 11.0965 29.5587 9.89183 30.5346 9.07464L27.915 6.27084C26.1392 7.77841 25.0202 9.97989 25.0202 12.4315C25.0165 14.8865 26.1356 17.0915 27.9077 18.5991L30.5236 15.7953C29.5513 14.9746 28.9386 13.777 28.9386 12.4385V12.4385ZM33.5908 16.9084C33.0772 16.9084 32.5782 16.8238 32.1159 16.6759L30.8648 20.2441C31.7197 20.5188 32.6332 20.6703 33.5872 20.6703C37.733 20.6738 41.1928 17.8489 41.9963 14.0975L38.1513 13.3437C37.7147 15.3832 35.8399 16.9119 33.5908 16.9084V16.9084ZM33.6018 4.20673C32.6516 4.20673 31.738 4.35467 30.8831 4.62589L32.1232 8.19757C32.5892 8.04963 33.0845 7.96862 33.5982 7.96862C35.8509 7.97214 37.7294 9.50789 38.155 11.5509L42 10.8041C41.2112 7.04576 37.7514 4.21025 33.6018 4.20673V4.20673Z" fill="white"/>
</svg>
